<?xml version="1.0" encoding="UTF-8" standalone="no"?>
<svg
   xmlns:dc="http://purl.org/dc/elements/1.1/"
   xmlns:cc="http://creativecommons.org/ns#"
   xmlns:rdf="http://www.w3.org/1999/02/22-rdf-syntax-ns#"
   xmlns:svg="http://www.w3.org/2000/svg"
   xmlns="http://www.w3.org/2000/svg"
   xmlns:sodipodi="http://sodipodi.sourceforge.net/DTD/sodipodi-0.dtd"
   xmlns:inkscape="http://www.inkscape.org/namespaces/inkscape"
   width="169.45425"
   height="133.40123"
   version="1.1"
   id="svg33"
   sodipodi:docname="laturilla_taustalla.svg"
   inkscape:version="0.92.4 (5da689c313, 2019-01-14)"
   inkscape:export-filename="/home/thirsikangas-local/Lataukset/export1.png"
   inkscape:export-xdpi="368"
   inkscape:export-ydpi="368">
  <metadata
     id="metadata39">
    <rdf:RDF>
      <cc:Work
         rdf:about="">
        <dc:format>image/svg+xml</dc:format>
        <dc:type
           rdf:resource="http://purl.org/dc/dcmitype/StillImage" />
        <dc:title></dc:title>
      </cc:Work>
    </rdf:RDF>
  </metadata>
  <defs
     id="defs37" />
  <sodipodi:namedview
     pagecolor="#ffffff"
     bordercolor="#666666"
     borderopacity="1"
     objecttolerance="10"
     gridtolerance="10"
     guidetolerance="10"
     inkscape:pageopacity="0"
     inkscape:pageshadow="2"
     inkscape:window-width="3840"
     inkscape:window-height="2098"
     id="namedview35"
     showgrid="false"
     inkscape:zoom="9.8333333"
     inkscape:cx="70.362636"
     inkscape:cy="51.864403"
     inkscape:window-x="0"
     inkscape:window-y="0"
     inkscape:window-maximized="1"
     inkscape:current-layer="g31" />
  <g
     id="g31"
     transform="matrix(6.7108308,0,0,6.1941005,-2.1161263,-15.257185)">
    <title
       id="title7">Layer 1</title>
    <rect
       id="svg_24"
       height="0"
       width="0.0075599998"
       y="2.01739"
       x="7.3517699"
       fill-opacity="null"
       stroke-opacity="null"
       stroke-width="null"
       stroke="null"
       style="fill:#000000"
       inkscape:export-xdpi="368.45236"
       inkscape:export-ydpi="368.45236" />
    <rect
       style="fill:#ffffff;stroke-width:0.15603612"
       id="rect218"
       width="25.322083"
       height="21.622543"
       x="0.26986843"
       y="2.4102938" />
    <g
       id="g5"
       transform="matrix(0.14901285,0,0,0.16144394,15.707854,15.001105)">
      <title
         id="title2">background</title>
      <rect
         id="canvas_background"
         height="26"
         width="26"
         y="-1"
         x="-1"
         style="fill:none" />
    </g>
    <path
       style="stroke-width:1"
       id="svg_1"
       d="m 12.952433,7.9981843 c -3.3599997,0 -4.3749997,0.375 -4.3749997,0.375 -0.7060001,0.236 -1.6725001,0.5685 -2.0625001,1.3125 -0.19565,0.3736197 -0.9479698,2.4651197 -1.5937499,4.3124997 L 4.138991,14.080274 C 3.7727054,14.118714 3.5566833,14.31827 3.4306832,14.68727 l -0.1742307,0.736754 c -0.1259999,0.369 -0.1084331,0.401245 0.2556539,0.459234 l 0.7215769,0.114926 c -0.02163,0.06276 -0.15625,0.46875 -0.15625,0.46875 -0.064,0.108 -0.1250001,0.616 -0.1250001,0.75 v 3.781251 0.249999 2.03125 c 0,0.390001 0.3287502,0.71875 0.7187502,0.71875 h 2.5624999 c 0.39,0 0.56081,-0.330784 0.5975191,-0.71875 l 0.1212308,-1.281249 h 9.9999998 l 0.151537,1.281249 c 0.04575,0.386836 0.177212,0.71875 0.567213,0.71875 h 2.562499 c 0.390001,0 0.592975,-0.263662 0.612674,-0.653077 l 0.106076,-2.096923 v -0.249999 -3.781251 c 0,-0.134 -0.061,-0.642 -0.124999,-0.75 0,0 -0.13367,-0.40458 -0.15625,-0.46875 l 0.448807,-0.147762 c 0.352102,-0.115924 0.654424,-0.106652 0.528423,-0.475652 l -0.234845,-0.736754 c -0.126,-0.369 -0.143358,-0.616837 -0.511308,-0.623414 l -0.918578,-0.01642 c -0.637949,-1.79295 -1.391349,-3.82146 -1.625,-4.3437497 -0.342999,-0.766 -1.428249,-1.11325 -2.031249,-1.28125 0,0 -1.015,-0.375 -4.375,-0.375 z m -0.530385,1.452332 c 5.081999,0 6.131135,0.9445037 6.143135,0.9555037 0.157,0.468 0.950942,2.039012 0.887249,3.873414 0,0 -2.156,0.71875 -6.499999,0.71875 -4.3439998,0 -6.4999998,-0.71875 -6.4999998,-0.71875 0.1774615,-2.186 0.7442116,-3.124307 0.8702115,-3.469307 0.101,-0.25 0.017404,-1.3596107 5.0994033,-1.3596107 z M 5.4836834,16.841934 c 0.1012999,-0.01355 0.2012499,0 0.3124999,0 0.435,0 1.3079999,0.371 1.8749999,0.625 0.6180001,0.276 1.3125001,0.50875 1.3125001,0.96875 0,0.426 -0.22425,0.625001 -1.0312501,0.625001 h -1.09375 c -0.9579999,0 -1.9062499,-0.142002 -1.9062499,-0.750001 v -0.71875 c 0,-0.53325 0.22736,-0.70936 0.5312501,-0.75 z m 14.6249996,0 c 0.445,0 0.84375,0.039 0.84375,0.75 v 0.71875 c 0,0.609 -0.94825,0.750001 -1.90625,0.750001 h -1.09375 c -0.806,0 -1.031251,-0.199001 -1.031251,-0.625001 0,-0.461 0.694501,-0.69275 1.312501,-0.96875 0.567,-0.253 1.44,-0.625 1.875,-0.625 z"
       inkscape:connector-curvature="0"
       sodipodi:nodetypes="scccsccsccsccssssccssssccsccsccscccssccsccscscssssscsssssscs"
       inkscape:export-xdpi="368.45236"
       inkscape:export-ydpi="368.45236" />
    <rect
       id="svg_3"
       height="3.4578602"
       width="5.5881395"
       y="5.1750932"
       x="19.158052"
       stroke-opacity="null"
       stroke="null"
       style="fill:#000000;stroke-width:1"
       inkscape:export-xdpi="368.45236"
       inkscape:export-ydpi="368.45236" />
    <rect
       id="svg_4"
       height="2.4390199"
       width="3.42698"
       y="5.5455737"
       x="19.528532"
       stroke-opacity="null"
       stroke="null"
       style="fill:#000000;stroke-width:1"
       inkscape:export-xdpi="368.45236"
       inkscape:export-ydpi="368.45236" />
    <rect
       id="svg_5"
       height="3.0565"
       width="5.21766"
       y="5.3912034"
       x="19.312422"
       stroke-opacity="null"
       stroke="null"
       style="fill:#000000;stroke-width:1"
       inkscape:export-xdpi="368.45236"
       inkscape:export-ydpi="368.45236" />
    <rect
       id="svg_7"
       height="3.1989503"
       width="5.4154401"
       y="5.2938132"
       x="19.242491"
       stroke-opacity="null"
       stroke="null"
       style="fill:#ffffff;stroke-width:1"
       inkscape:export-xdpi="368.45236"
       inkscape:export-ydpi="368.45236" />
    <rect
       id="svg_8"
       height="0.86264002"
       width="5.40346"
       y="6.5039039"
       x="19.242491"
       stroke-opacity="null"
       stroke="null"
       style="fill:#002f6c;stroke-width:1"
       inkscape:export-xdpi="368.45236"
       inkscape:export-ydpi="368.45236" />
    <rect
       id="svg_9"
       height="3.2588499"
       width="0.82669002"
       y="5.2818332"
       x="20.704184"
       stroke-opacity="null"
       stroke="null"
       style="fill:#002f6c;stroke-width:1"
       inkscape:export-xdpi="368.45236"
       inkscape:export-ydpi="368.45236" />
    <rect
       id="svg_11"
       height="4.70856"
       width="0.13111"
       y="5.1141038"
       x="19.098721"
       stroke-opacity="null"
       stroke="null"
       style="fill:#000000;stroke-width:1"
       inkscape:export-xdpi="368.45236"
       inkscape:export-ydpi="368.45236" />
    <ellipse
       ry="0.15422"
       rx="0.13535"
       id="svg_12"
       cy="5.0583634"
       cx="19.168383"
       stroke-opacity="null"
       stroke="null"
       style="fill:#000000;stroke-width:1"
       inkscape:export-xdpi="368.45236"
       inkscape:export-ydpi="368.45236" />
    <ellipse
       ry="1.58153"
       rx="1.4440001"
       id="svg_13"
       cy="4.2624636"
       cx="10.717673"
       fill-opacity="null"
       stroke-opacity="null"
       stroke="null"
       style="fill:#000000;stroke-width:1"
       inkscape:export-xdpi="368.45236"
       inkscape:export-ydpi="368.45236" />
    <rect
       id="svg_14"
       height="3.1624897"
       width="2.8192401"
       y="2.6876445"
       x="10.653665"
       fill-opacity="null"
       stroke-opacity="null"
       stroke="null"
       style="fill:#000000;stroke-width:1"
       inkscape:export-xdpi="368.45236"
       inkscape:export-ydpi="368.45236" />
    <rect
       id="svg_15"
       height="0.47574002"
       width="2.1087"
       y="3.1098042"
       x="13.244622"
       fill-opacity="null"
       stroke-opacity="null"
       stroke="null"
       style="fill:#000000;stroke-width:1"
       inkscape:export-xdpi="368.45236"
       inkscape:export-ydpi="368.45236" />
    <rect
       id="svg_16"
       height="0.47574002"
       width="2.1087"
       y="4.845633"
       x="13.225343"
       fill-opacity="null"
       stroke-opacity="null"
       stroke="null"
       style="fill:#000000;stroke-width:1"
       inkscape:export-xdpi="368.45236"
       inkscape:export-ydpi="368.45236" />
    <rect
       id="svg_22"
       height="3.61922"
       width="0.24934"
       y="2.4613643"
       x="13.230562"
       stroke-opacity="null"
       stroke="null"
       style="fill:#000000;stroke-width:1"
       inkscape:export-xdpi="368.45236"
       inkscape:export-ydpi="368.45236" />
    <rect
       id="svg_23"
       height="0.43823004"
       width="0.46089998"
       y="3.9498544"
       x="8.9691038"
       fill-opacity="null"
       stroke-opacity="null"
       stroke="null"
       style="fill:#000000;stroke-width:1"
       inkscape:export-xdpi="368.45236"
       inkscape:export-ydpi="368.45236" />
    <path
       id="svg_32"
       d="M 21.442084,5.0054398"
       fill-opacity="null"
       inkscape:connector-curvature="0"
       style="opacity:0.5;fill:none;stroke:#000000;stroke-width:1"
       inkscape:export-xdpi="368.45236"
       inkscape:export-ydpi="368.45236" />
    <path
       id="svg_41"
       d="m 19.834103,17.212614 c -3.32511,0.99567 -2.45022,1.437909 -2.45742,1.42038 0.30436,0.100069 0.51543,0.120829 0.516489,0.1033 0.098,0.01753 1.16413,0.03819 1.156931,0.02066 0.0072,0.01753 0.874889,-0.06511 0.89555,-0.06511 0.02066,0 0.37187,-0.06198 0.36467,-0.07951 0.01545,0.04229 0.29643,-0.12709 0.289229,-0.14462 0.0072,0.01753 0.06918,-0.70555 0.04852,-0.70555 -0.02066,0 0.08241,-0.59488 -0.213699,-0.63717"
       fill-opacity="null"
       stroke-opacity="null"
       stroke="null"
       inkscape:connector-curvature="0"
       style="fill:#000000;stroke-width:1"
       inkscape:export-xdpi="368.45236"
       inkscape:export-ydpi="368.45236" />
    <path
       id="svg_42"
       d="m 6.0991632,17.217664 c 3.36291,1.16832 2.4401501,1.56417 2.44849,1.547041 -0.3181199,0.08401 -0.5361099,0.09368 -0.53625,0.07612 -0.10164,0.01238 -1.1981899,-0.02279 -1.18985,-0.03992 -0.00834,0.01713 -0.8954398,-0.110811 -0.9166698,-0.111891 -0.02123,-0.0011 -0.3787601,-0.08136 -0.3704101,-0.09848 -0.01816,0.04143 -0.29774,-0.14243 -0.2894,-0.15956 -0.00834,0.01713 -0.03309,-0.70821 -0.01186,-0.70712 0.02123,0.0011 -0.05264,-0.59838 0.2538901,-0.62512"
       fill-opacity="null"
       stroke-opacity="null"
       stroke="null"
       inkscape:connector-curvature="0"
       style="fill:#000000;stroke-width:1"
       inkscape:export-xdpi="368.45236"
       inkscape:export-ydpi="368.45236" />
    <rect
       id="svg_43"
       height="0.71814996"
       width="3.5247099"
       y="19.842207"
       x="11.404702"
       stroke-opacity="null"
       stroke="null"
       style="fill:#ffffff;stroke-width:1"
       inkscape:export-xdpi="368.45236"
       inkscape:export-ydpi="368.45236" />
    <text
       transform="scale(0.96578447,1.0354277)"
       xml:space="preserve"
       font-size="1"
       id="svg_44"
       y="19.781754"
       x="12.030962"
       stroke-opacity="null"
       stroke="null"
       style="font-size:0.76160991px;font-family:Helvetica, Arial, sans-serif;text-anchor:start;fill:#000000;stroke-width:0"
       inkscape:export-xdpi="368.45236"
       inkscape:export-ydpi="368.45236">ABC-123</text>
    <path
       style="fill:none;stroke:#000000;stroke-width:0.15510391px;stroke-linecap:butt;stroke-linejoin:miter;stroke-opacity:1"
       d="M 8.9962263,4.1816248 C 2.8437635,4.312969 1.8587634,12.686163 1.8587634,12.686163 c 0,0 -0.1515385,2.101508 -0.1666924,2.232852 -0.015154,0.131344 -0.1060769,0.443286 0.030308,1.395532 0.039108,0.233037 0.2538494,0.921596 0.2727693,0.804483 0.060615,0.131345 0.5606924,0.344779 0.5606924,0.344779 0,0 0.3636924,0.04926 0.4394616,0.01642 0.212154,-0.147762 0.2500088,-0.10994 0.303077,-0.213434 0.075769,-0.14776 0.1970001,-0.246271 0.2879231,-0.328361 0.090923,-0.08209 0.3788464,-0.180598 0.3788464,-0.180598 l 0.1212307,0.03284"
       id="path53"
       inkscape:connector-curvature="0"
       sodipodi:nodetypes="ccscccccscc"
       inkscape:export-xdpi="368.45236"
       inkscape:export-ydpi="368.45236" />
    <rect
       style="fill:#000000;stroke-width:0.15510391"
       id="rect55"
       width="0.31823087"
       height="0.42686874"
       x="3.8060331"
       y="16.544401"
       inkscape:export-xdpi="368.45236"
       inkscape:export-ydpi="368.45236" />
    <ellipse
       style="fill:#000000;stroke-width:0.15510391"
       id="path57"
       cx="3.6999562"
       cy="16.73321"
       rx="0.23488471"
       ry="0.17239024"
       inkscape:export-xdpi="368.45236"
       inkscape:export-ydpi="368.45236" />
  </g>
</svg>
