<svg version="1" xmlns="http://www.w3.org/2000/svg" width="1237.333" height="1237.333" viewBox="0 0 928.000000 928.000000"><path d="M472.7 209.7c-.4.3-.7 1.7-.7 3v2.4l-35.4-.2c-39.5-.1-41 .1-50.2 6.6-6.4 4.5-10.9 10.5-13.5 17.6-2.1 5.8-2.2 5.9-6 5.9-2.6 0-3.9.4-3.9 1.4 0 1.4-4.9 2.6-11.2 2.6-6.5 0-26.3 3.9-36.4 7.1-56.5 18-98.5 65.9-124.1 141.4-4.4 13.1-10.3 35.9-12.2 47-2.3 13.9-6.3 70.1-5.8 81.1.7 12.7 5.1 28.8 9 32.5 1.2 1.2 5.3 3.7 9.2 5.5 11.6 5.6 21.8 4.2 28-4.1 3.7-4.8 8.3-7.5 11.8-6.8l2.7.5v76.5c0 85.8-.4 81 7.3 86.1l4.1 2.7 38.5.3c37.4.2 38.7.2 41.9-1.8 5.1-3.2 6.8-8.3 8.9-27.5l1.8-17 128.2-.3 128.1-.2.6 2.7c.3 1.6 1.2 8.9 2.1 16.3 2 16.5 3.7 22.1 7.7 25.5l3 2.6 39.3-.3 39.3-.3 2.7-2.5c1.5-1.4 3.3-3.9 4-5.5 2.6-6.1 4.7-59.2 4.3-112l-.3-49-3.3-9.4c-1.8-5.2-2.9-9.7-2.5-10.1.4-.4 5.1-1.9 10.3-3.4 11.4-3.3 14-4.8 14-8.1 0-3.9-9.8-30.7-12-33-1.8-1.8-3.7-2.1-16.4-2.5-8-.3-14.6-.7-14.8-1-.2-.3-4.2-10.2-8.8-22-12.4-32.1-28.5-71.2-32.5-79.1-3.2-6.5-3.5-7.7-3.5-16V356h141v-82l-69.7-.2-69.6-.3-.2-2.3c-.2-2.1-1.9-4.1-3.6-4.2-.4 0-1.2.7-2 1.6-1 1.2-1 2.2-.1 4.8 1.3 3.4 1.8 94.7.6 95.9-.3.3-2.6-1-5.2-2.9-6.6-5.1-15-9.1-28.2-13.4-27.5-9-58.3-12-124-12-66.5 0-97.4 3-123.9 12.2-23.4 8-36.2 17-42.7 30-4.2 8.3-14.8 34.3-28.4 69.8-5.6 14.6-10.6 27.2-11.1 28.1-.6 1.2-3.7 1.8-12.5 2.7-20 2-23.2 4.8-28.8 25.8-2 7.3-3.6 13.6-3.6 14.2 0 1.5 4.8 3 14 4.2 4.7.6 9.5 1.4 10.7 1.7l2.2.5-2.2 6.1-2.2 6.2-6.2.5c-7.1.6-10.2 2.6-8.5 5.6.8 1.5.2 2.8-3.5 6.9-5.8 6.5-7.6 7.4-14.3 7.5-4.1 0-7.1-.8-11.7-2.9-5.3-2.5-6.6-3.7-8.7-7.8-6.9-13.8-7.7-26.9-4.2-69.8 1.9-23.3 3.5-36 5.6-46.6 7.1-34.2 19.6-67.2 36-94.9 32-54.2 76.6-84.1 132.1-88.5 7.2-.6 8.8-.5 9.5.8.5.9 2.4 1.7 4.3 1.9 3.3.3 3.5.6 4.6 5.4 2.6 11.7 11.5 21.9 23.2 26.5 5.6 2.3 6.8 2.4 41.6 2.7l35.7.3v2.5c0 2 .5 2.4 3 2.4h2.9l.3-8.8.3-8.7 23.8-.3 23.7-.2v-11l-23.7-.2-23.8-.3v-29l23.8-.3 23.7-.2v-11l-23.7-.2-23.8-.3-.3-7.8c-.3-7.3-.4-7.7-2.6-7.7-1.2 0-2.6.3-2.9.7zm191.1 81l.3 14.3H626v-13.8c0-7.6.3-14.2.7-14.6.4-.3 8.8-.5 18.7-.4l18.1.3.3 14.2zm101.2 0v14.8l-40-.3-40-.2v-13.9c0-7.6.3-14.1.7-14.4.3-.4 18.3-.7 40-.7H765v14.7zm-101.2 48l.3 13.3H626v-12.8c0-7.1.3-13.2.7-13.6.4-.3 8.8-.5 18.7-.4l18.1.3.3 13.2zm101.2-.2V352h-80v-12.8c0-7.1.3-13.2.7-13.5.3-.4 18.3-.7 40-.7H765v13.5zm-245.9 38.9c23.2 2 43.6 5 58.6 8.6 12.1 2.9 26.3 7.9 29.5 10.3 1.8 1.5 11.2 23.2 15.1 35.2 5.8 17.8 8.6 32.7 9 48l.2 9.9-7.5 1.8c-21.8 5.2-51.1 9.5-86 12.5-29.5 2.5-116.5 2.5-146 0-35.2-3.1-67.9-7.8-86.5-12.6l-7-1.8.3-5.9c.7-15.6 6.9-42.2 13.7-58.7 2.6-6.1 5.8-13.9 7.2-17.2 3.3-8 6.2-11.6 12.2-15.4 12.8-8.3 42.4-14.3 81.1-16.5 15.6-.9 89.5.4 106.1 1.8zM299 553.5c13.2 4.1 48 18.2 54 21.8 3 1.7 6.5 4.8 7.8 6.7 4.9 7.3.9 16.3-8.5 18.9-4.8 1.4-59.6 1.4-67.7.1-10.9-1.8-16.6-3.9-20.9-8l-4.2-3.9v-13.8c0-15.8 1.4-20.1 7.6-23.5 4.9-2.8 20.2-2 31.9 1.7zm363.4-1.5c1.6.8 3.9 2.8 5 4.3 1.9 2.6 2.1 4.2 2.1 18.4v15.5l-3.1 2.8c-8.3 7.4-20.7 9.2-59.4 8.8-26.5-.3-29.9-.5-33.3-2.2-4.5-2.2-6.7-6-6.7-11.5 0-5.2 4.2-10.2 12.1-14.2 12.5-6.3 43.8-18.3 57.4-22 8.2-2.2 21.4-2.2 25.9.1zm-146.9 77.5v8l-45.2.3-45.3.2v-17l45.3.2 45.2.3v8z"/><path d="M269.5 558c-2.2 2.5-3.8 16.3-2.8 24.5l.8 6 5.5 2.2c8.3 3.3 27 5.5 51 6 24.1.5 29.2-.3 29.8-4.6 1-6.6-17.2-16.8-50.5-28.4-11.2-3.9-26.4-7.7-30.8-7.7-.6 0-2 .9-3 2zM647.5 557.7c-5.2.7-20.7 5.1-34.6 9.8-31.4 10.7-44.4 21-32.4 25.5 5.5 2.1 57.6 2.2 68 .1 13.2-2.6 13.5-3.1 13.5-21 0-15.1-1.1-16.2-14.5-14.4zM434.1 627.2c-2.7 6.4-3.3 8.8-2.3 8.8.5 0 1.2-.9 1.5-2 .4-1.4 1.4-2 3.5-2s3.1.6 3.5 2c.3 1.1 1 2 1.6 2 .9 0 .4-1.7-3.6-11.8-.9-2.3-2.4-1.2-4.2 3zm4.3 3c-.7 1-3.4 1-3.4 0 0-.4.3-1.8.7-3.1l.6-2.3 1.3 2.3c.7 1.3 1 2.7.8 3.1zM445 629.5v6.5h3.9c4.8 0 7.1-2.2 5.3-5.1-.7-1.1-1-2.4-.7-2.9.4-.6.3-1.9 0-3-.5-1.6-1.5-2-4.6-2H445v6.5zm6.8-3.3c.3 1.4-.3 1.8-2.7 1.8-2.9 0-4.1-1.7-2.4-3.4 1.3-1.3 4.8-.1 5.1 1.6zm.7 4.8c.9 1.5-1.4 4-3.6 4s-3.3-1.6-2.5-3.5c.6-1.7 5.2-2 6.1-.5zM458.7 624.8c-2.1 2.3-2.2 7.6-.1 9.6 1.8 1.9 6.5 2.1 8.2.4 2.2-2.2 1.3-2.7-1.7-1-3.7 2.1-6.1.4-6.1-4.2 0-5.3 3.5-7.2 7.2-3.9 2 1.8 2.5.4.6-1.5-1.8-1.8-6.3-1.4-8.1.6zM479.4 625.2c-1.7 1.9-1.7 2.1-.1 1.5 1.5-.6 1.7 0 1.7 4.3 0 2.8.5 5 1 5 .6 0 1-2.8 1-6.5 0-3.6-.4-6.5-.8-6.5-.5 0-1.7 1-2.8 2.2zM488.1 624.4c-.7.8-.8 1.7-.3 2 .6.3 1.2-.1 1.6-.9.7-2 3.5-1.9 4.3.1.3 1-.8 2.9-3.1 5.3-2 2-3.6 4-3.6 4.4 0 .4 2.1.6 4.8.6 2.6-.1 3.8-.3 2.7-.6-4.8-1-4.9-1.3-1.4-4.9 2.7-2.8 3.1-3.8 2.3-5.2-1.4-2.2-5.7-2.7-7.3-.8zM498.5 624.1c-1.1 1.7.3 2.3 2 .9 2.2-1.8 4.4.2 2.6 2.4-1.1 1.3-1 1.8.3 3.2 1.3 1.2 1.4 1.9.5 3-1.4 1.7-3.6 1.8-4.2.1-.2-.6-.8-.9-1.2-.4-1.5 1.3 1.1 2.9 4.1 2.5 2.8-.3 2.9-.5 2.9-5.3.1-2.8-.3-5.6-.8-6.3-1.1-1.5-5.3-1.6-6.2-.1zM470.5 631c-.4.6.5 1 2 1s2.4-.4 2-1c-.3-.6-1.2-1-2-1s-1.7.4-2 1z"/></svg>